# xmcd
#
# Track frame offsets: 
#        180
#        12535
#        29049
#        47725
#        59342
#        76669
#        99007
#        112730
#        130340
#        144433
#        159244
#        165047
#        173619
#        179192
#        184469
#        192720
#        215220
#        228426
#        244494
#        254096
#        270199
#        284022
#        323129
#
# Disc length: 4317 seconds
#
# Revision: 0
# Processed by: cddbd v1.5.2PL0 Copyright (c) Steve Scherf et al.
# Submitted via: ExactAudioCopy v0.99pb4
#
DISCID=4f10db17
DTITLE=John Fogerty - Keep On Choogling
DYEAR=1997
DGENRE=Country
TTITLE0=Fortunate Son (1997)
TTITLE1=Walking In A Hurricane (1997)
TTITLE2=Blue Boy (1997)
TTITLE3=Mary Don't You Weep (all stars)
TTITLE4=My Pretty Baby (all stars)
TTITLE5=Let's Go, Let's Go, Let's Go (all stars)
TTITLE6=I Confess (all stars)
TTITLE7=Mannish Boy (all stars)
TTITLE8=No Love In You (all stars)
TTITLE9=Rock 'n' Roll Girls (all stars)
TTITLE10=Southern Streamline
TTITLE11=Blue Boy
TTITLE12=Green River
TTITLE13=Fortunate Son
TTITLE14=Walking In A Hurricane
TTITLE15=Born On The Bayou (CCR)
TTITLE16=Green River (CCR)
TTITLE17=Tombstone Shadow (CCR)
TTITLE18=Travelling Band (CCR)
TTITLE19=Midnight Special (CCR)
TTITLE20=Proud Mary (CCR)
TTITLE21=Keep On Choogling (CCR)
TTITLE22=Unknown Track
EXTD=
EXTT0=
EXTT1=
EXTT2=
EXTT3=
EXTT4=
EXTT5=
EXTT6=
EXTT7=
EXTT8=
EXTT9=
EXTT10=
EXTT11=
EXTT12=
EXTT13=
EXTT14=
EXTT15=
EXTT16=
EXTT17=
EXTT18=
EXTT19=
EXTT20=
EXTT21=
EXTT22=
PLAYORDER=
